  0
SECTION
  2
HEADER
  9
$ACADVER
  1
AC1014
  9
$HANDSEED
  5
FFFF
  9
$MEASUREMENT
 70
     1
  0
ENDSEC
  0
SECTION
  2
TABLES
  0
TABLE
  2
VPORT
  5
8
330
0
100
AcDbSymbolTable
 70
     4
  0
VPORT
  5
2E
330
8
100
AcDbSymbolTableRecord
100
AcDbViewportTableRecord
  2
*ACTIVE
 70
     0
 10
0.0
 20
0.0
 11
1.0
 21
1.0
 12
210.0
 22
148.5
 13
0.0
 23
0.0
 14
10.0
 24
10.0
 15
10.0
 25
10.0
 16
0.0
 26
0.0
 36
1.0
 17
0.0
 27
0.0
 37
0.0
 40
341.0
 41
1.24
 42
50.0
 43
0.0
 44
0.0
 50
0.0
 51
0.0
 71
     0
 72
   100
 73
     1
 74
     3
 75
     0
 76
     0
 77
     0
 78
     0
  0
ENDTAB
  0
TABLE
  2
LTYPE
  5
5
330
0
100
AcDbSymbolTable
 70
     1
  0
LTYPE
  5
14
330
5
100
AcDbSymbolTableRecord
100
AcDbLinetypeTableRecord
  2
BYBLOCK
 70
     0
  3

 72
    65
 73
     0
 40
0.0
  0
LTYPE
  5
15
330
5
100
AcDbSymbolTableRecord
100
AcDbLinetypeTableRecord
  2
BYLAYER
 70
     0
  3

 72
    65
 73
     0
 40
0.0
  0
LTYPE
  5
16
330
5
100
AcDbSymbolTableRecord
100
AcDbLinetypeTableRecord
  2
CONTINUOUS
 70
     0
  3
Solid line
 72
    65
 73
     0
 40
0.0
  0
ENDTAB
  0
TABLE
  2
LAYER
  5
2
100
AcDbSymbolTable
 70
2
  0
LAYER
  5
50
100
AcDbSymbolTableRecord
100
AcDbLayerTableRecord
  2
0
 70
0
  6
CONTINUOUS
  0
LAYER
  5
51
100
AcDbSymbolTableRecord
100
AcDbLayerTableRecord
  2
Layer_1
 70
0
  6
CONTINUOUS
  0
ENDTAB
  0
TABLE
  2
STYLE
  5
3
330
0
100
AcDbSymbolTable
 70
     1
  0
STYLE
  5
11
330
3
100
AcDbSymbolTableRecord
100
AcDbTextStyleTableRecord
  2
STANDARD
 70
     0
 40
0.0
 41
1.0
 50
0.0
 71
     0
 42
2.5
  3
txt
  4

  0
ENDTAB
  0
TABLE
  2
VIEW
  5
6
330
0
100
AcDbSymbolTable
 70
     0
  0
ENDTAB
  0
TABLE
  2
UCS
  5
7
330
0
100
AcDbSymbolTable
 70
     0
  0
ENDTAB
  0
TABLE
  2
APPID
  5
9
330
0
100
AcDbSymbolTable
 70
     2
  0
APPID
  5
12
330
9
100
AcDbSymbolTableRecord
100
AcDbRegAppTableRecord
  2
ACAD
 70
     0
  0
ENDTAB
  0
TABLE
  2
DIMSTYLE
  5
A
330
0
100
AcDbSymbolTable
 70
     1
  0
DIMSTYLE
105
27
330
A
100
AcDbSymbolTableRecord
100
AcDbDimStyleTableRecord
  2
ISO-25
 70
     0
  3

  4

  5

  6

  7

 40
1.0
 41
2.5
 42
0.625
 43
3.75
 44
1.25
 45
0.0
 46
0.0
 47
0.0
 48
0.0
140
2.5
141
2.5
142
0.0
143
0.03937007874016
144
1.0
145
0.0
146
1.0
147
0.625
 71
     0
 72
     0
 73
     0
 74
     0
 75
     0
 76
     0
 77
     1
 78
     8
170
     0
171
     3
172
     1
173
     0
174
     0
175
     0
176
     0
177
     0
178
     0
270
     2
271
     2
272
     2
273
     2
274
     3
340
11
275
     0
280
     0
281
     0
282
     0
283
     0
284
     8
285
     0
286
     0
287
     3
288
     0
  0
ENDTAB
  0
TABLE
  2
BLOCK_RECORD
  5
1
330
0
100
AcDbSymbolTable
 70
     1
  0
BLOCK_RECORD
  5
1F
330
1
100
AcDbSymbolTableRecord
100
AcDbBlockTableRecord
  2
*MODEL_SPACE
  0
BLOCK_RECORD
  5
1B
330
1
100
AcDbSymbolTableRecord
100
AcDbBlockTableRecord
  2
*PAPER_SPACE
  0
ENDTAB
  0
ENDSEC
  0
SECTION
  2
BLOCKS
  0
BLOCK
  5
20
330
1F
100
AcDbEntity
  8
0
100
AcDbBlockBegin
  2
*MODEL_SPACE
 70
     0
 10
0.0
 20
0.0
 30
0.0
  3
*MODEL_SPACE
  1

  0
ENDBLK
  5
21
330
1F
100
AcDbEntity
  8
0
100
AcDbBlockEnd
  0
BLOCK
  5
1C
330
1B
100
AcDbEntity
 67
     1
  8
0
100
AcDbBlockBegin
  2
*PAPER_SPACE
  1

  0
ENDBLK
  5
1D
330
1B
100
AcDbEntity
 67
     1
  8
0
100
AcDbBlockEnd
  0
ENDSEC
  0
SECTION
  2
ENTITIES
  0
SPLINE
  5
100
100
AcDbEntity
  8
Layer_1
 62
7
100
AcDbSpline
 70
8
 71
3
 72
8
 73
4
 74
0
 40
0
 40
0
 40
0
 40
0
 40
1
 40
1
 40
1
 40
1
 10
67.342659
 20
223.477357
 30
0.0
 10
57.705486
 20
223.477133
 30
0.0
 10
49.893124
 20
215.951658
 30
0.0
 10
49.893079
 20
206.668563
 30
0.0
  0
SPLINE
  5
101
100
AcDbEntity
  8
Layer_1
 62
7
100
AcDbSpline
 70
8
 71
3
 72
8
 73
4
 74
0
 40
0
 40
0
 40
0
 40
0
 40
1
 40
1
 40
1
 40
1
 10
49.893079
 20
206.668563
 30
0.0
 10
49.893895
 20
206.646513
 30
0.0
 10
49.894756
 20
206.624464
 30
0.0
 10
49.895661
 20
206.602417
 30
0.0
  0
SPLINE
  5
102
100
AcDbEntity
  8
Layer_1
 62
7
100
AcDbSpline
 70
8
 71
3
 72
8
 73
4
 74
0
 40
0
 40
0
 40
0
 40
0
 40
1
 40
1
 40
1
 40
1
 10
54.263871
 20
189.945555
 30
0.0
 10
55.021701
 20
189.890877
 30
0.0
 10
55.608807
 20
189.260480
 30
0.0
 10
55.609524
 20
188.500681
 30
0.0
  0
SPLINE
  5
103
100
AcDbEntity
  8
Layer_1
 62
7
100
AcDbSpline
 70
8
 71
3
 72
8
 73
4
 74
0
 40
0
 40
0
 40
0
 40
0
 40
1
 40
1
 40
1
 40
1
 10
55.609524
 20
188.500681
 30
0.0
 10
55.609620
 20
187.740286
 30
0.0
 10
55.022295
 20
187.108978
 30
0.0
 10
54.263871
 20
187.054257
 30
0.0
  0
LWPOLYLINE
  5
104
100
AcDbEntity
  8
Layer_1
 62
7
100
AcDbPolyline
 90
6
 70
0
 10
49.895661
 20
206.602417
 30
0.0
 10
49.893079
 20
206.602417
 30
0.0
 10
49.893079
 20
189.950204
 30
0.0
 10
54.159485
 20
189.950204
 30
0.0
 10
54.263871
 20
189.950204
 30
0.0
 10
54.263871
 20
189.945555
 30
0.0
  0
SPLINE
  5
105
100
AcDbEntity
  8
Layer_1
 62
7
100
AcDbSpline
 70
8
 71
3
 72
8
 73
4
 74
0
 40
0
 40
0
 40
0
 40
0
 40
1
 40
1
 40
1
 40
1
 10
80.421963
 20
187.054257
 30
0.0
 10
79.663538
 20
187.108977
 30
0.0
 10
79.076212
 20
187.740285
 30
0.0
 10
79.076308
 20
188.500681
 30
0.0
  0
SPLINE
  5
106
100
AcDbEntity
  8
Layer_1
 62
7
100
AcDbSpline
 70
8
 71
3
 72
8
 73
4
 74
0
 40
0
 40
0
 40
0
 40
0
 40
1
 40
1
 40
1
 40
1
 10
79.076308
 20
188.500681
 30
0.0
 10
79.077025
 20
189.260481
 30
0.0
 10
79.664133
 20
189.890879
 30
0.0
 10
80.421963
 20
189.945555
 30
0.0
  0
LWPOLYLINE
  5
107
100
AcDbEntity
  8
Layer_1
 62
7
100
AcDbPolyline
 90
10
 70
0
 10
54.263871
 20
187.054257
 30
0.0
 10
54.263871
 20
187.050124
 30
0.0
 10
54.159485
 20
187.050124
 30
0.0
 10
49.893079
 20
187.050124
 30
0.0
 10
49.893079
 20
170.594280
 30
0.0
 10
84.792755
 20
170.594280
 30
0.0
 10
84.792755
 20
187.050124
 30
0.0
 10
80.526349
 20
187.050124
 30
0.0
 10
80.421963
 20
187.050124
 30
0.0
 10
80.421963
 20
187.054257
 30
0.0
  0
SPLINE
  5
108
100
AcDbEntity
  8
Layer_1
 62
7
100
AcDbSpline
 70
8
 71
3
 72
8
 73
4
 74
0
 40
0
 40
0
 40
0
 40
0
 40
1
 40
1
 40
1
 40
1
 10
84.789139
 20
206.602417
 30
0.0
 10
84.790389
 20
206.624463
 30
0.0
 10
84.791595
 20
206.646512
 30
0.0
 10
84.792755
 20
206.668563
 30
0.0
  0
SPLINE
  5
109
100
AcDbEntity
  8
Layer_1
 62
7
100
AcDbSpline
 70
8
 71
3
 72
8
 73
4
 74
0
 40
0
 40
0
 40
0
 40
0
 40
1
 40
1
 40
1
 40
1
 10
84.792755
 20
206.668563
 30
0.0
 10
84.792734
 20
211.126555
 30
0.0
 10
82.954235
 20
215.401952
 30
0.0
 10
79.681706
 20
218.554212
 30
0.0
  0
SPLINE
  5
10a
100
AcDbEntity
  8
Layer_1
 62
7
100
AcDbSpline
 70
8
 71
3
 72
8
 73
4
 74
0
 40
0
 40
0
 40
0
 40
0
 40
1
 40
1
 40
1
 40
1
 10
79.681706
 20
218.554212
 30
0.0
 10
76.409178
 20
221.706473
 30
0.0
 10
71.970690
 20
223.477381
 30
0.0
 10
67.342659
 20
223.477357
 30
0.0
  0
LWPOLYLINE
  5
10b
100
AcDbEntity
  8
Layer_1
 62
7
100
AcDbPolyline
 90
6
 70
0
 10
80.421963
 20
189.945555
 30
0.0
 10
80.421963
 20
189.950204
 30
0.0
 10
80.526349
 20
189.950204
 30
0.0
 10
84.792755
 20
189.950204
 30
0.0
 10
84.792755
 20
206.602417
 30
0.0
 10
84.789139
 20
206.602417
 30
0.0
  0
SPLINE
  5
10c
100
AcDbEntity
  8
Layer_1
 62
7
100
AcDbSpline
 70
8
 71
3
 72
8
 73
4
 74
0
 40
0
 40
0
 40
0
 40
0
 40
1
 40
1
 40
1
 40
1
 10
69.792917
 20
178.822210
 30
0.0
 10
69.792917
 20
177.946909
 30
0.0
 10
69.325949
 20
177.138098
 30
0.0
 10
68.567917
 20
176.700448
 30
0.0
  0
SPLINE
  5
10d
100
AcDbEntity
  8
Layer_1
 62
7
100
AcDbSpline
 70
8
 71
3
 72
8
 73
4
 74
0
 40
0
 40
0
 40
0
 40
0
 40
1
 40
1
 40
1
 40
1
 10
68.567917
 20
176.700448
 30
0.0
 10
67.809884
 20
176.262797
 30
0.0
 10
66.875949
 20
176.262797
 30
0.0
 10
66.117917
 20
176.700448
 30
0.0
  0
SPLINE
  5
10e
100
AcDbEntity
  8
Layer_1
 62
7
100
AcDbSpline
 70
8
 71
3
 72
8
 73
4
 74
0
 40
0
 40
0
 40
0
 40
0
 40
1
 40
1
 40
1
 40
1
 10
66.117917
 20
176.700448
 30
0.0
 10
65.359884
 20
177.138098
 30
0.0
 10
64.892917
 20
177.946909
 30
0.0
 10
64.892917
 20
178.822210
 30
0.0
  0
SPLINE
  5
10f
100
AcDbEntity
  8
Layer_1
 62
7
100
AcDbSpline
 70
8
 71
3
 72
8
 73
4
 74
0
 40
0
 40
0
 40
0
 40
0
 40
1
 40
1
 40
1
 40
1
 10
64.892917
 20
178.822210
 30
0.0
 10
64.892917
 20
179.697511
 30
0.0
 10
65.359884
 20
180.506322
 30
0.0
 10
66.117917
 20
180.943972
 30
0.0
  0
SPLINE
  5
110
100
AcDbEntity
  8
Layer_1
 62
7
100
AcDbSpline
 70
8
 71
3
 72
8
 73
4
 74
0
 40
0
 40
0
 40
0
 40
0
 40
1
 40
1
 40
1
 40
1
 10
66.117917
 20
180.943972
 30
0.0
 10
66.875949
 20
181.381622
 30
0.0
 10
67.809884
 20
181.381622
 30
0.0
 10
68.567917
 20
180.943972
 30
0.0
  0
SPLINE
  5
111
100
AcDbEntity
  8
Layer_1
 62
7
100
AcDbSpline
 70
8
 71
3
 72
8
 73
4
 74
0
 40
0
 40
0
 40
0
 40
0
 40
1
 40
1
 40
1
 40
1
 10
68.567917
 20
180.943972
 30
0.0
 10
69.325949
 20
180.506322
 30
0.0
 10
69.792917
 20
179.697511
 30
0.0
 10
69.792917
 20
178.822210
 30
0.0
  0
LWPOLYLINE
  5
112
100
AcDbEntity
  8
Layer_1
 62
7
100
AcDbPolyline
 90
1
 70
1
 10
67.342659
 20
223.477357
 30
0.0
  0
SPLINE
  5
113
100
AcDbEntity
  8
Layer_1
 62
7
100
AcDbSpline
 70
8
 71
3
 72
8
 73
4
 74
0
 40
0
 40
0
 40
0
 40
0
 40
1
 40
1
 40
1
 40
1
 10
58.149007
 20
178.822210
 30
0.0
 10
58.149007
 20
178.304175
 30
0.0
 10
57.872638
 20
177.825491
 30
0.0
 10
57.424007
 20
177.566473
 30
0.0
  0
SPLINE
  5
114
100
AcDbEntity
  8
Layer_1
 62
7
100
AcDbSpline
 70
8
 71
3
 72
8
 73
4
 74
0
 40
0
 40
0
 40
0
 40
0
 40
1
 40
1
 40
1
 40
1
 10
57.424007
 20
177.566473
 30
0.0
 10
56.975375
 20
177.307455
 30
0.0
 10
56.422638
 20
177.307455
 30
0.0
 10
55.974007
 20
177.566473
 30
0.0
  0
SPLINE
  5
115
100
AcDbEntity
  8
Layer_1
 62
7
100
AcDbSpline
 70
8
 71
3
 72
8
 73
4
 74
0
 40
0
 40
0
 40
0
 40
0
 40
1
 40
1
 40
1
 40
1
 10
55.974007
 20
177.566473
 30
0.0
 10
55.525375
 20
177.825491
 30
0.0
 10
55.249007
 20
178.304175
 30
0.0
 10
55.249007
 20
178.822210
 30
0.0
  0
SPLINE
  5
116
100
AcDbEntity
  8
Layer_1
 62
7
100
AcDbSpline
 70
8
 71
3
 72
8
 73
4
 74
0
 40
0
 40
0
 40
0
 40
0
 40
1
 40
1
 40
1
 40
1
 10
55.249007
 20
178.822210
 30
0.0
 10
55.249007
 20
179.340245
 30
0.0
 10
55.525375
 20
179.818929
 30
0.0
 10
55.974007
 20
180.077947
 30
0.0
  0
SPLINE
  5
117
100
AcDbEntity
  8
Layer_1
 62
7
100
AcDbSpline
 70
8
 71
3
 72
8
 73
4
 74
0
 40
0
 40
0
 40
0
 40
0
 40
1
 40
1
 40
1
 40
1
 10
55.974007
 20
180.077947
 30
0.0
 10
56.422638
 20
180.336964
 30
0.0
 10
56.975375
 20
180.336964
 30
0.0
 10
57.424007
 20
180.077947
 30
0.0
  0
SPLINE
  5
118
100
AcDbEntity
  8
Layer_1
 62
7
100
AcDbSpline
 70
8
 71
3
 72
8
 73
4
 74
0
 40
0
 40
0
 40
0
 40
0
 40
1
 40
1
 40
1
 40
1
 10
57.424007
 20
180.077947
 30
0.0
 10
57.872638
 20
179.818929
 30
0.0
 10
58.149007
 20
179.340245
 30
0.0
 10
58.149007
 20
178.822210
 30
0.0
  0
LWPOLYLINE
  5
119
100
AcDbEntity
  8
Layer_1
 62
7
100
AcDbPolyline
 90
1
 70
1
 10
69.792917
 20
178.822210
 30
0.0
  0
SPLINE
  5
11a
100
AcDbEntity
  8
Layer_1
 62
7
100
AcDbSpline
 70
8
 71
3
 72
8
 73
4
 74
0
 40
0
 40
0
 40
0
 40
0
 40
1
 40
1
 40
1
 40
1
 10
79.436822
 20
178.822210
 30
0.0
 10
79.436822
 20
178.304175
 30
0.0
 10
79.160453
 20
177.825491
 30
0.0
 10
78.711822
 20
177.566473
 30
0.0
  0
SPLINE
  5
11b
100
AcDbEntity
  8
Layer_1
 62
7
100
AcDbSpline
 70
8
 71
3
 72
8
 73
4
 74
0
 40
0
 40
0
 40
0
 40
0
 40
1
 40
1
 40
1
 40
1
 10
78.711822
 20
177.566473
 30
0.0
 10
78.263190
 20
177.307455
 30
0.0
 10
77.710453
 20
177.307455
 30
0.0
 10
77.261822
 20
177.566473
 30
0.0
  0
SPLINE
  5
11c
100
AcDbEntity
  8
Layer_1
 62
7
100
AcDbSpline
 70
8
 71
3
 72
8
 73
4
 74
0
 40
0
 40
0
 40
0
 40
0
 40
1
 40
1
 40
1
 40
1
 10
77.261822
 20
177.566473
 30
0.0
 10
76.813190
 20
177.825491
 30
0.0
 10
76.536822
 20
178.304175
 30
0.0
 10
76.536822
 20
178.822210
 30
0.0
  0
SPLINE
  5
11d
100
AcDbEntity
  8
Layer_1
 62
7
100
AcDbSpline
 70
8
 71
3
 72
8
 73
4
 74
0
 40
0
 40
0
 40
0
 40
0
 40
1
 40
1
 40
1
 40
1
 10
76.536822
 20
178.822210
 30
0.0
 10
76.536822
 20
179.340245
 30
0.0
 10
76.813190
 20
179.818929
 30
0.0
 10
77.261822
 20
180.077947
 30
0.0
  0
SPLINE
  5
11e
100
AcDbEntity
  8
Layer_1
 62
7
100
AcDbSpline
 70
8
 71
3
 72
8
 73
4
 74
0
 40
0
 40
0
 40
0
 40
0
 40
1
 40
1
 40
1
 40
1
 10
77.261822
 20
180.077947
 30
0.0
 10
77.710453
 20
180.336964
 30
0.0
 10
78.263190
 20
180.336964
 30
0.0
 10
78.711822
 20
180.077947
 30
0.0
  0
SPLINE
  5
11f
100
AcDbEntity
  8
Layer_1
 62
7
100
AcDbSpline
 70
8
 71
3
 72
8
 73
4
 74
0
 40
0
 40
0
 40
0
 40
0
 40
1
 40
1
 40
1
 40
1
 10
78.711822
 20
180.077947
 30
0.0
 10
79.160453
 20
179.818929
 30
0.0
 10
79.436822
 20
179.340245
 30
0.0
 10
79.436822
 20
178.822210
 30
0.0
  0
LWPOLYLINE
  5
120
100
AcDbEntity
  8
Layer_1
 62
7
100
AcDbPolyline
 90
1
 70
1
 10
58.149007
 20
178.822210
 30
0.0
  0
LWPOLYLINE
  5
121
100
AcDbEntity
  8
Layer_1
 62
7
100
AcDbPolyline
 90
1
 70
1
 10
79.436822
 20
178.822210
 30
0.0
  0
SPLINE
  5
122
100
AcDbEntity
  8
Layer_1
 62
7
100
AcDbSpline
 70
8
 71
3
 72
8
 73
4
 74
0
 40
0
 40
0
 40
0
 40
0
 40
1
 40
1
 40
1
 40
1
 10
64.749278
 20
189.894740
 30
0.0
 10
64.123954
 20
189.719310
 30
0.0
 10
63.691555
 20
189.149466
 30
0.0
 10
63.690945
 20
188.500000
 30
0.0
  0
SPLINE
  5
123
100
AcDbEntity
  8
Layer_1
 62
7
100
AcDbSpline
 70
8
 71
3
 72
8
 73
4
 74
0
 40
0
 40
0
 40
0
 40
0
 40
1
 40
1
 40
1
 40
1
 10
63.690945
 20
188.500000
 30
0.0
 10
63.690856
 20
187.849955
 30
0.0
 10
64.123397
 20
187.279287
 30
0.0
 10
64.749278
 20
187.103700
 30
0.0
  0
LWPOLYLINE
  5
124
100
AcDbEntity
  8
Layer_1
 62
7
100
AcDbPolyline
 90
2
 70
0
 10
64.749278
 20
189.950040
 30
0.0
 10
64.749278
 20
189.894740
 30
0.0
  0
SPLINE
  5
125
100
AcDbEntity
  8
Layer_1
 62
7
100
AcDbSpline
 70
8
 71
3
 72
8
 73
4
 74
0
 40
0
 40
0
 40
0
 40
0
 40
1
 40
1
 40
1
 40
1
 10
69.936558
 20
187.103700
 30
0.0
 10
70.562440
 20
187.279287
 30
0.0
 10
70.994981
 20
187.849955
 30
0.0
 10
70.994892
 20
188.500000
 30
0.0
  0
SPLINE
  5
126
100
AcDbEntity
  8
Layer_1
 62
7
100
AcDbSpline
 70
8
 71
3
 72
8
 73
4
 74
0
 40
0
 40
0
 40
0
 40
0
 40
1
 40
1
 40
1
 40
1
 10
70.994892
 20
188.500000
 30
0.0
 10
70.994282
 20
189.149466
 30
0.0
 10
70.561883
 20
189.719310
 30
0.0
 10
69.936558
 20
189.894740
 30
0.0
  0
LWPOLYLINE
  5
127
100
AcDbEntity
  8
Layer_1
 62
7
100
AcDbPolyline
 90
7
 70
0
 10
64.749278
 20
187.103700
 30
0.0
 10
64.749278
 20
187.050000
 30
0.0
 10
65.036597
 20
187.050000
 30
0.0
 10
69.544851
 20
187.050000
 30
0.0
 10
69.649237
 20
187.050000
 30
0.0
 10
69.936558
 20
187.050000
 30
0.0
 10
69.936558
 20
187.103700
 30
0.0
  0
LWPOLYLINE
  5
128
100
AcDbEntity
  8
Layer_1
 62
7
100
AcDbPolyline
 90
6
 70
0
 10
69.936558
 20
189.894740
 30
0.0
 10
69.936558
 20
189.950040
 30
0.0
 10
69.649237
 20
189.950040
 30
0.0
 10
69.544851
 20
189.950040
 30
0.0
 10
65.036597
 20
189.950040
 30
0.0
 10
64.749278
 20
189.950040
 30
0.0
  0
ENDSEC
  0
SECTION
  2
OBJECTS
  0
DICTIONARY
  5
C
330
0
100
AcDbDictionary
  3
ACAD_GROUP
350
D
  3
ACAD_MLINESTYLE
350
17
  0
DICTIONARY
  5
D
330
C
100
AcDbDictionary
  0
DICTIONARY
  5
1A
330
C
100
AcDbDictionary
  0
DICTIONARY
  5
17
330
C
100
AcDbDictionary
  3
STANDARD
350
18
  0
DICTIONARY
  5
19
330
C
100
AcDbDictionary
  0
ENDSEC
  0
EOF
